<svg width="400" height="400" viewBox="0 0 400 400" xmlns="http://www.w3.org/2000/svg">
  <defs>
    <style>
      .grid-line { stroke: #1a1a1a; stroke-width: 0.5; }
    </style>
  </defs>
  <rect width="400" height="400" fill="#0a0a0a" rx="80"/>
  <rect width="400" height="400" fill="none" stroke="#FF4D1C" stroke-width="3" rx="80"/>
  <line class="grid-line" x1="200" y1="40" x2="200" y2="360"/>
  <line class="grid-line" x1="40" y1="200" x2="360" y2="200"/>
  <circle cx="200" cy="200" r="130" fill="none" stroke="#FF4D1C" stroke-width="1" stroke-dasharray="6 10" opacity="0.4"/>
  <circle cx="200" cy="200" r="105" fill="none" stroke="#1a1a1a" stroke-width="1"/>
  <!-- Corner brackets -->
  <rect x="30" y="30" width="24" height="3" fill="#FF4D1C" opacity="0.8"/>
  <rect x="30" y="30" width="3" height="24" fill="#FF4D1C" opacity="0.8"/>
  <rect x="346" y="30" width="24" height="3" fill="#FF4D1C" opacity="0.8"/>
  <rect x="367" y="30" width="3" height="24" fill="#FF4D1C" opacity="0.8"/>
  <rect x="30" y="367" width="24" height="3" fill="#FF4D1C" opacity="0.8"/>
  <rect x="30" y="346" width="3" height="24" fill="#FF4D1C" opacity="0.8"/>
  <rect x="346" y="367" width="24" height="3" fill="#FF4D1C" opacity="0.8"/>
  <rect x="367" y="346" width="3" height="24" fill="#FF4D1C" opacity="0.8"/>
  <!-- Crab body -->
  <ellipse cx="200" cy="205" rx="58" ry="44" fill="#FF4D1C"/>
  <!-- Left claws -->
  <path d="M146 192 Q106 152 80 136 Q68 128 76 150 Q84 168 110 180 Z" fill="#FF6B3D"/>
  <path d="M144 218 Q102 232 76 248 Q64 256 76 238 Q88 222 116 216 Z" fill="#FF6B3D"/>
  <!-- Right claws -->
  <path d="M254 192 Q294 152 320 136 Q332 128 324 150 Q316 168 290 180 Z" fill="#FF6B3D"/>
  <path d="M256 218 Q298 232 324 248 Q336 256 324 238 Q312 222 284 216 Z" fill="#FF6B3D"/>
  <!-- Legs left -->
  <path d="M154 210 Q134 228 126 252" stroke="#CC3300" stroke-width="4" fill="none" stroke-linecap="round"/>
  <path d="M150 224 Q128 244 122 270" stroke="#CC3300" stroke-width="3" fill="none" stroke-linecap="round"/>
  <path d="M156 236 Q138 258 134 282" stroke="#CC3300" stroke-width="2.5" fill="none" stroke-linecap="round"/>
  <!-- Legs right -->
  <path d="M246 210 Q266 228 274 252" stroke="#CC3300" stroke-width="4" fill="none" stroke-linecap="round"/>
  <path d="M250 224 Q272 244 278 270" stroke="#CC3300" stroke-width="3" fill="none" stroke-linecap="round"/>
  <path d="M244 236 Q262 258 266 282" stroke="#CC3300" stroke-width="2.5" fill="none" stroke-linecap="round"/>
  <!-- Eyes -->
  <circle cx="180" cy="185" r="10" fill="#0a0a0a"/>
  <circle cx="220" cy="185" r="10" fill="#0a0a0a"/>
  <circle cx="180" cy="185" r="5" fill="#7EE8A2"/>
  <circle cx="220" cy="185" r="5" fill="#7EE8A2"/>
  <circle cx="182" cy="183" r="2.5" fill="#fff"/>
  <circle cx="222" cy="183" r="2.5" fill="#fff"/>
  <!-- $CRAB text -->
  <text font-family="'Courier New', monospace" font-size="32" font-weight="700" fill="#FF4D1C" letter-spacing="4" x="200" y="340" text-anchor="middle">$CRAB</text>
  <!-- Dot row -->
  <circle cx="168" cy="370" r="3" fill="#FF4D1C" opacity="0.4"/>
  <circle cx="184" cy="370" r="3" fill="#7EE8A2" opacity="0.7"/>
  <circle cx="200" cy="370" r="3" fill="#7EE8A2" opacity="1"/>
  <circle cx="216" cy="370" r="3" fill="#7EE8A2" opacity="0.7"/>
  <circle cx="232" cy="370" r="3" fill="#FF4D1C" opacity="0.4"/>
</svg>
